# xmcd
#
# Track frame offsets: 
#        150
#        22055
#        32899
#        44449
#        56048
#        64524
#        75087
#        85927
#        105744
#        118147
#        131256
#
# Disc length: 1907 seconds
#
# Revision: 3
# Processed by: cddbd v1.5.2PL0 Copyright (c) Steve Scherf et al.
# Submitted via: ExactAudioCopyFreeDBPlugin 1.0
#
DISCID=8a07710b
DTITLE=Willie Nelson - Hill Country Christmas ("El Niño")
DYEAR=1997
DGENRE=Holiday
TTITLE0=El Niño
TTITLE1=Away In a Manger
TTITLE2=Joy to the World
TTITLE3=O' Little Town of Bethlehem
TTITLE4=Here Comes Santa Claus (ft Gene Autry)
TTITLE5=Pretty Paper
TTITLE6=Hark the Herald Angels Sing
TTITLE7=Silent Night
TTITLE8=Deck the Halls
TTITLE9=White Christmas
TTITLE10=El Niño (instumental)
EXTD=
EXTT0=
EXTT1=
EXTT2=
EXTT3=
EXTT4=
EXTT5=
EXTT6=
EXTT7=
EXTT8=
EXTT9=
EXTT10=
PLAYORDER=
